<?xml version="1.0" encoding="utf-8"?>
<!-- Generator: Adobe Illustrator 16.0.0, SVG Export Plug-In . SVG Version: 6.00 Build 0)  -->
<!DOCTYPE svg PUBLIC "-//W3C//DTD SVG 1.1//EN" "http://www.w3.org/Graphics/SVG/1.1/DTD/svg11.dtd">
<svg version="1.1" id="Layer_1" xmlns="http://www.w3.org/2000/svg" xmlns:xlink="http://www.w3.org/1999/xlink" x="0px" y="0px"
	 width="20px" height="20px" viewBox="583.337 -191.07 20 20" enable-background="new 583.337 -191.07 20 20" xml:space="preserve">
<g>
	<polygon fill="#333333" points="585.227,-189.281 585.227,-189.271 585.227,-172.869 585.227,-172.857 593.494,-181.07 	"/>
	<path fill="#333333" d="M596.6-184.154l-10.229-5.784c-0.203-0.114-0.398-0.175-0.564-0.175c-0.061,0-0.146,0.009-0.23,0.05
		l8.484,8.43L596.6-184.154z"/>
	<path fill="#333333" d="M600.934-181.708l-3.607-2.039l-2.693,2.676l2.693,2.678l3.607-2.041c0.326-0.185,0.514-0.416,0.514-0.637
		C601.447-181.29,601.26-181.522,600.934-181.708z"/>
	<path fill="#333333" d="M585.574-172.075c0.064,0.031,0.141,0.049,0.232,0.049c0.166,0,0.359-0.06,0.564-0.175l10.229-5.784
		l-2.539-2.521L585.574-172.075z"/>
</g>
</svg>
