<?xml version="1.0" encoding="utf-8"?>
<!-- Generator: Adobe Illustrator 16.0.0, SVG Export Plug-In . SVG Version: 6.00 Build 0)  -->
<!DOCTYPE svg PUBLIC "-//W3C//DTD SVG 1.1//EN" "http://www.w3.org/Graphics/SVG/1.1/DTD/svg11.dtd">
<svg version="1.1" id="Layer_1" xmlns="http://www.w3.org/2000/svg" xmlns:xlink="http://www.w3.org/1999/xlink" x="0px" y="0px"
	 width="20px" height="20px" viewBox="33.461 0 20 20" enable-background="new 33.461 0 20 20" xml:space="preserve">
<path fill="#333333" d="M47.716,7.491H47.26h-0.708c0.414-0.259,0.687-0.689,0.687-1.172c0-0.794-0.728-1.439-1.618-1.439
	c-0.761,0-1.657,1.3-2.159,2.14c-0.502-0.84-1.397-2.14-2.155-2.14c-0.896,0-1.622,0.646-1.622,1.439
	c0,0.482,0.271,0.913,0.688,1.172h-0.641h-0.525c-0.519,0-0.939,0.423-0.939,0.94v1.494c0,0.368,0.215,0.687,0.524,0.843v3.412
	c0,0.52,0.42,0.94,0.94,0.94h7.528c0.52,0,0.939-0.423,0.939-0.94v-3.451c0.273-0.166,0.457-0.462,0.457-0.804V8.431
	C48.656,7.914,48.234,7.491,47.716,7.491z M41.294,5.738c0.188,0.035,0.634,0.534,1.068,1.161h-1.059
	c-0.413,0-0.764-0.267-0.764-0.58C40.541,6.002,40.891,5.738,41.294,5.738z M43.033,14.266h-3.302c-0.046,0-0.084-0.039-0.084-0.086
	v-3.313h3.386V14.266z M43.033,10.007h-3.827c-0.047,0-0.082-0.039-0.082-0.082V8.431c0-0.046,0.035-0.082,0.082-0.082h3.827V10.007
	z M45.617,5.738c0.414,0,0.764,0.265,0.764,0.581c0,0.313-0.35,0.58-0.764,0.58h-1.059C44.993,6.272,45.438,5.773,45.617,5.738z
	 M47.345,14.18c0,0.047-0.038,0.086-0.085,0.086h-3.371v-3.399h3.456V14.18z M47.8,9.925c0,0.043-0.038,0.082-0.084,0.082h-3.827
	V8.349h3.827c0.046,0,0.084,0.036,0.084,0.082V9.925z"/>
</svg>
