<?xml version="1.0" encoding="utf-8"?>
<!-- Generator: Adobe Illustrator 16.0.0, SVG Export Plug-In . SVG Version: 6.00 Build 0)  -->
<!DOCTYPE svg PUBLIC "-//W3C//DTD SVG 1.1//EN" "http://www.w3.org/Graphics/SVG/1.1/DTD/svg11.dtd">
<svg version="1.1" id="Layer_1" xmlns="http://www.w3.org/2000/svg" xmlns:xlink="http://www.w3.org/1999/xlink" x="0px" y="0px"
	 width="50px" height="40px" viewBox="234.088 -201.069 50 40" enable-background="new 234.088 -201.069 50 40"
	 xml:space="preserve">
<path fill="#333333" d="M276.622-187.34c0-0.014,0.004-0.026,0.004-0.04c0-0.018-0.009-0.033-0.01-0.05
	c-0.005-0.098-0.024-0.194-0.059-0.288c-0.009-0.023-0.013-0.047-0.023-0.07c-0.003-0.008-0.004-0.017-0.008-0.025l-2.239-4.66
	v-1.092c0-1.905-1.551-3.454-3.458-3.454h-23.48c-1.907,0-3.459,1.55-3.459,3.454v1.09l-2.24,4.662
	c-0.004,0.008-0.005,0.017-0.009,0.025c-0.01,0.022-0.014,0.045-0.021,0.067c-0.035,0.095-0.055,0.192-0.06,0.291
	c-0.001,0.018-0.01,0.032-0.01,0.05c0,0.014,0.004,0.026,0.004,0.04c0.001,0.018,0.004,0.034,0.005,0.052
	c0.041,1.649,1.138,3.024,2.637,3.496v14.107c0,0.552,0.448,1,1,1h14.438l4.002,3.333c0.185,0.154,0.412,0.231,0.64,0.231
	s0.454-0.077,0.642-0.231l4.006-3.333h4.127c0.551,0,1-0.448,1-1v-14.129c1.464-0.493,2.527-1.852,2.567-3.475
	C276.618-187.306,276.621-187.322,276.622-187.34z M268.775-188.379h-3.272l-0.332-2.867h2.752L268.775-188.379z M250.255-191.247
	h2.755l-0.315,2.867h-3.288L250.255-191.247z M255.023-191.247h3.065v2.867h-3.381L255.023-191.247z M260.089-191.247h3.07
	l0.332,2.867h-3.402V-191.247z M245.519-191.247h2.65l-0.848,2.867h-3.182L245.519-191.247z M252.283-186.379
	c-0.319,0.468-0.854,0.777-1.459,0.777s-1.14-0.309-1.457-0.777H252.283z M257.783-186.379c-0.316,0.468-0.848,0.777-1.45,0.777
	c-0.598,0-1.125-0.309-1.438-0.777H257.783z M263.305-186.379c-0.319,0.468-0.854,0.777-1.462,0.777
	c-0.601,0-1.132-0.309-1.448-0.777H263.305z M268.809-186.379c-0.317,0.468-0.852,0.777-1.456,0.777
	c-0.596,0-1.122-0.309-1.436-0.777H268.809z M270.86-188.379l-0.853-2.867h2.65l1.378,2.867H270.86z M245.89-193.564
	c0-0.802,0.654-1.454,1.457-1.454h23.481c0.804,0,1.458,0.652,1.458,1.454v0.317h-8.236h-9.924h-8.236V-193.564z M243.857-186.379
	h2.913c-0.318,0.468-0.853,0.777-1.457,0.777S244.175-185.911,243.857-186.379z M255.198-170.685h-5.182v-9.566h5.182V-170.685z
	 M268.56-170.685c-0.233,0-0.459,0.082-0.639,0.231l-3.646,3.032l-3.64-3.032c-0.181-0.149-0.406-0.231-0.641-0.231h-2.797v-10.566
	c0-0.552-0.447-1-1-1h-7.182c-0.553,0-1,0.448-1,1v10.566h-1.821v-13.034c0.732-0.178,1.378-0.569,1.873-1.107
	c0.688,0.747,1.665,1.223,2.756,1.223c1.096,0,2.074-0.479,2.763-1.23c0.685,0.751,1.657,1.23,2.746,1.23
	c1.092,0,2.068-0.479,2.756-1.231c0.687,0.751,1.662,1.231,2.754,1.231c1.097,0,2.076-0.479,2.766-1.23
	c0.685,0.751,1.656,1.23,2.744,1.23c1.09,0,2.065-0.476,2.754-1.222c0.512,0.555,1.182,0.959,1.943,1.128v13.012H268.56z
	 M272.862-185.603c-0.605,0-1.14-0.309-1.458-0.777h2.914C274.001-185.911,273.467-185.603,272.862-185.603z"/>
</svg>
