<?xml version="1.0" encoding="utf-8"?>
<!-- Generator: Adobe Illustrator 16.0.0, SVG Export Plug-In . SVG Version: 6.00 Build 0)  -->
<!DOCTYPE svg PUBLIC "-//W3C//DTD SVG 1.1//EN" "http://www.w3.org/Graphics/SVG/1.1/DTD/svg11.dtd">
<svg version="1.1" id="Layer_1" xmlns="http://www.w3.org/2000/svg" xmlns:xlink="http://www.w3.org/1999/xlink" x="0px" y="0px"
	 width="30px" height="30px" viewBox="-18.256 -196.069 30 30" enable-background="new -18.256 -196.069 30 30"
	 xml:space="preserve">
<g>
	<path fill="#ffffff" d="M-3.252-183.61c2.475,0,4.488-2.013,4.488-4.492c0-2.481-2.014-4.488-4.488-4.488
		c-2.479,0-4.492,2.007-4.492,4.488C-7.745-185.623-5.731-183.61-3.252-183.61z M-3.252-190.591c1.372,0,2.488,1.116,2.488,2.488
		c0,1.374-1.116,2.492-2.488,2.492c-1.374,0-2.492-1.118-2.492-2.492C-5.746-189.475-4.627-190.591-3.252-190.591z"/>
	<path fill="#ffffff" d="M-3.253-181.861c-6.235,0-11.308,5.075-11.308,11.313c0,0.552,0.448,1,1,1c0.552,0,1-0.448,1-1
		c0-5.136,4.176-9.313,9.308-9.313c5.13,0,9.303,4.178,9.303,9.313c0,0.552,0.448,1,1,1c0.553,0,1-0.448,1-1
		C8.049-176.786,2.979-181.861-3.253-181.861z"/>
</g>
</svg>
