<?xml version="1.0" encoding="utf-8"?>
<!-- Generator: Adobe Illustrator 16.0.0, SVG Export Plug-In . SVG Version: 6.00 Build 0)  -->
<!DOCTYPE svg PUBLIC "-//W3C//DTD SVG 1.1//EN" "http://www.w3.org/Graphics/SVG/1.1/DTD/svg11.dtd">
<svg version="1.1" id="Layer_1" xmlns="http://www.w3.org/2000/svg" xmlns:xlink="http://www.w3.org/1999/xlink" x="0px" y="0px"
	 width="40px" height="40px" viewBox="401.566 -201.07 40 40" enable-background="new 401.566 -201.07 40 40" xml:space="preserve">
<g>
	<circle fill="#323232" cx="421.566" cy="-181.07" r="18.303"/>
	<g>
		<g>
			<path fill="#FFFFFF" d="M425.977-170.836h-8.815c-3.212,0-5.825-2.612-5.825-5.827v-8.815c0-3.211,2.613-5.824,5.825-5.824h8.815
				c3.211,0,5.824,2.613,5.824,5.824v8.815C431.801-173.448,429.188-170.836,425.977-170.836z M417.16-189.549
				c-2.245,0-4.071,1.824-4.071,4.07v8.815c0,2.245,1.826,4.071,4.071,4.071h8.814c2.246,0,4.071-1.826,4.071-4.071v-8.815
				c0-2.246-1.825-4.07-4.071-4.07H417.16z"/>
		</g>
		<g>
			<path fill="#FFFFFF" d="M421.566-175.83c-2.889,0-5.239-2.352-5.239-5.239c0-2.889,2.353-5.24,5.239-5.24
				c2.892,0,5.24,2.352,5.24,5.24C426.807-178.182,424.458-175.83,421.566-175.83z M421.566-184.556
				c-1.922,0-3.484,1.564-3.484,3.486s1.562,3.485,3.484,3.485c1.924,0,3.486-1.563,3.486-3.485S423.49-184.556,421.566-184.556z"/>
		</g>
		<g>
			<circle fill="#FFFFFF" cx="427.033" cy="-186.608" r="1.259"/>
		</g>
	</g>
</g>
</svg>
