<?xml version="1.0" encoding="utf-8"?>
<!-- Generator: Adobe Illustrator 16.0.0, SVG Export Plug-In . SVG Version: 6.00 Build 0)  -->
<!DOCTYPE svg PUBLIC "-//W3C//DTD SVG 1.1//EN" "http://www.w3.org/Graphics/SVG/1.1/DTD/svg11.dtd">
<svg version="1.1" id="Layer_1" xmlns="http://www.w3.org/2000/svg" xmlns:xlink="http://www.w3.org/1999/xlink" x="0px" y="0px"
	 width="20px" height="20px" viewBox="541.481 -191.069 20 20" enable-background="new 541.481 -191.069 20 20"
	 xml:space="preserve">
<g>
	<path fill="#333333" d="M556.646-179.191c-0.18-0.363-0.281-0.75-0.326-1.152c-0.051-0.444-0.039-0.885,0.055-1.323
		c0.131-0.6,0.404-1.125,0.816-1.578c0.281-0.307,0.605-0.562,0.959-0.779c0.014-0.01,0.023-0.018,0.043-0.031
		c-0.053-0.064-0.1-0.133-0.152-0.197c-0.525-0.66-1.209-1.084-2.018-1.312c-0.426-0.117-0.857-0.188-1.299-0.191
		c-0.377-0.002-0.748,0.06-1.107,0.169c-0.365,0.11-0.727,0.244-1.088,0.362c-0.271,0.087-0.547,0.169-0.82,0.252
		c-0.121,0.035-0.24,0.001-0.359-0.028c-0.334-0.082-0.658-0.201-0.98-0.32c-0.371-0.137-0.746-0.26-1.137-0.338
		c-0.295-0.058-0.594-0.064-0.895-0.033c-0.375,0.037-0.738,0.119-1.088,0.256c-0.678,0.264-1.258,0.67-1.729,1.225
		c-0.576,0.682-0.932,1.47-1.096,2.346c-0.104,0.561-0.129,1.125-0.1,1.694c0.066,1.218,0.383,2.376,0.863,3.492
		c0.33,0.771,0.756,1.479,1.26,2.141c0.256,0.333,0.514,0.666,0.814,0.958c0.252,0.244,0.521,0.469,0.844,0.623
		c0.199,0.096,0.404,0.16,0.625,0.18c0.01,0,0.018,0.006,0.025,0.008c0.08,0,0.162,0,0.24,0c0.094-0.014,0.188-0.023,0.277-0.041
		c0.34-0.063,0.662-0.174,0.982-0.303c0.332-0.133,0.672-0.238,1.023-0.296c0.516-0.088,1.023-0.051,1.521,0.103
		c0.266,0.081,0.523,0.186,0.787,0.282c0.301,0.107,0.605,0.191,0.926,0.224c0.395,0.039,0.768-0.041,1.121-0.219
		c0.354-0.182,0.65-0.435,0.91-0.73c0.732-0.832,1.354-1.738,1.791-2.762c0.105-0.25,0.193-0.504,0.293-0.756
		c0.006-0.014,0.01-0.025,0.018-0.037c0-0.003,0-0.005,0-0.01C557.764-177.703,557.084-178.32,556.646-179.191z"/>
	<path fill="#333333" d="M551.461-185.342c0.145-0.001,0.289,0.004,0.434-0.01c0.402-0.041,0.771-0.18,1.119-0.387
		c0.477-0.287,0.869-0.664,1.203-1.104c0.521-0.688,0.803-1.455,0.77-2.326c-0.002-0.064-0.008-0.129-0.014-0.203
		c-0.121,0.016-0.234,0.028-0.346,0.046c-0.383,0.067-0.736,0.206-1.082,0.375c-1.287,0.629-2.031,1.938-2.125,3
		c-0.02,0.2-0.021,0.401,0.006,0.604C551.438-185.343,551.449-185.342,551.461-185.342z"/>
</g>
</svg>
