<?xml version="1.0" encoding="utf-8"?>
<!-- Generator: Adobe Illustrator 16.0.0, SVG Export Plug-In . SVG Version: 6.00 Build 0)  -->
<!DOCTYPE svg PUBLIC "-//W3C//DTD SVG 1.1//EN" "http://www.w3.org/Graphics/SVG/1.1/DTD/svg11.dtd">
<svg version="1.1" id="Layer_1" xmlns="http://www.w3.org/2000/svg" xmlns:xlink="http://www.w3.org/1999/xlink" x="0px" y="0px"
	 width="10px" height="10px" viewBox="-28.374 -95.037 10 10" enable-background="new -28.374 -95.037 10 10" xml:space="preserve">
<path fill="#333333" d="M-21.96-90.037l2.653-2.652c0.391-0.39,0.391-1.023,0-1.414c-0.39-0.391-1.023-0.391-1.414,0l-2.652,2.652
	l-2.651-2.651c-0.391-0.391-1.023-0.391-1.414,0c-0.391,0.391-0.391,1.023,0,1.414l2.651,2.651l-2.652,2.652
	c-0.391,0.39-0.391,1.023,0,1.414c0.195,0.195,0.451,0.293,0.707,0.293c0.256,0,0.512-0.098,0.707-0.293l2.652-2.652l2.652,2.652
	c0.195,0.195,0.451,0.293,0.707,0.293s0.512-0.098,0.707-0.293c0.391-0.391,0.391-1.023,0-1.414L-21.96-90.037z"/>
</svg>
