<?xml version="1.0" encoding="utf-8"?>
<!-- Generator: Adobe Illustrator 16.0.0, SVG Export Plug-In . SVG Version: 6.00 Build 0)  -->
<!DOCTYPE svg PUBLIC "-//W3C//DTD SVG 1.1//EN" "http://www.w3.org/Graphics/SVG/1.1/DTD/svg11.dtd">
<svg version="1.1" id="Layer_1" xmlns="http://www.w3.org/2000/svg" xmlns:xlink="http://www.w3.org/1999/xlink" x="0px" y="0px"
	 width="30px" height="30px" viewBox="-71.092 -196.069 30 30" enable-background="new -71.092 -196.069 30 30"
	 xml:space="preserve">
<g>
	<path fill="#ffffff" d="M-45.097-185.05h-8.122l1.684-4.57c0.419-1.123-0.155-2.386-1.291-2.818
		c-1.107-0.407-2.407,0.194-2.816,1.295l-2.246,6.093h-9.199c-0.042,0-0.083,0.003-0.125,0.008
		c-1.146,0.063-2.061,1.016-2.064,2.181v1.633c0,0.867,0.51,1.612,1.242,1.967v6.312c0,1.861,1.516,3.376,3.38,3.376H-47.8
		c1.863,0,3.379-1.515,3.379-3.376v-6.209c0.871-0.29,1.509-1.103,1.513-2.068v-1.635C-42.908-184.068-43.89-185.05-45.097-185.05z
		 M-45.097-183.05c0.104,0,0.189,0.085,0.189,0.189v1.63c0,0.108-0.086,0.193-0.193,0.194h-11.043
		c0.878-0.035,1.663-0.588,1.97-1.417l0.219-0.596H-45.097z M-53.767-190.449c0.031-0.082,0.101-0.117,0.202-0.117
		c0.012,0,0.024,0.001,0.036,0.002c0.104,0.039,0.156,0.147,0.117,0.25l-2.641,7.169c-0.033,0.09-0.116,0.122-0.177,0.122
		l-0.067-0.012c-0.063-0.023-0.094-0.068-0.109-0.103c-0.014-0.032-0.027-0.082-0.002-0.146L-53.767-190.449z M-67.277-182.858
		c0.001-0.137,0.145-0.178,0.281-0.192h8.587c0.019,0.252,0.076,0.501,0.183,0.739c0.243,0.536,0.68,0.943,1.231,1.149
		c0.2,0.075,0.407,0.111,0.618,0.125h-10.71c-0.106,0-0.189-0.084-0.189-0.191V-182.858z M-47.8-171.573h-16.854
		c-0.761,0-1.38-0.617-1.38-1.376v-6.088h19.613v6.088C-46.421-172.19-47.041-171.573-47.8-171.573z"/>
	<path fill="#ffffff" d="M-63.371-177.997c-0.552,0-1,0.448-1,1v3.713c0,0.552,0.448,1,1,1c0.552,0,1-0.448,1-1v-3.713
		C-62.371-177.548-62.818-177.997-63.371-177.997z"/>
	<path fill="#ffffff" d="M-59.774-177.997c-0.552,0-1,0.448-1,1v3.713c0,0.552,0.448,1,1,1s1-0.448,1-1v-3.713
		C-58.774-177.548-59.222-177.997-59.774-177.997z"/>
	<path fill="#ffffff" d="M-56.178-177.997c-0.552,0-1,0.448-1,1v3.713c0,0.552,0.448,1,1,1c0.552,0,1-0.448,1-1v-3.713
		C-55.178-177.548-55.626-177.997-56.178-177.997z"/>
	<path fill="#ffffff" d="M-52.583-177.997c-0.552,0-1,0.448-1,1v3.713c0,0.552,0.448,1,1,1c0.553,0,1-0.448,1-1v-3.713
		C-51.583-177.548-52.03-177.997-52.583-177.997z"/>
	<path fill="#ffffff" d="M-48.985-177.997c-0.552,0-1,0.448-1,1v3.713c0,0.552,0.448,1,1,1c0.552,0,1-0.448,1-1v-3.713
		C-47.985-177.548-48.434-177.997-48.985-177.997z"/>
</g>
</svg>
