<?xml version="1.0" encoding="utf-8"?>
<!-- Generator: Adobe Illustrator 16.0.0, SVG Export Plug-In . SVG Version: 6.00 Build 0)  -->
<!DOCTYPE svg PUBLIC "-//W3C//DTD SVG 1.1//EN" "http://www.w3.org/Graphics/SVG/1.1/DTD/svg11.dtd">
<svg version="1.1" id="Layer_1" xmlns="http://www.w3.org/2000/svg" xmlns:xlink="http://www.w3.org/1999/xlink" x="0px" y="0px"
	 width="20px" height="20px" viewBox="-5.984 0 20 20" enable-background="new -5.984 0 20 20" xml:space="preserve">
<g>
	<g>
		<path fill="#333333" d="M1.375,5.806c0.608,0,1.182,0.237,1.612,0.668l0.327,0.33l0.706,0.703l0.704-0.703l0.324-0.325
			c0.428-0.431,1-0.668,1.608-0.668c0.607,0,1.178,0.237,1.605,0.666c0.428,0.431,0.664,1,0.662,1.605v0.003v0.002
			c0,0.605-0.237,1.178-0.666,1.608l-4.243,4.229l-4.239-4.239C-0.656,9.254-0.896,8.682-0.896,8.08V8.077l0,0
			c0-0.607,0.236-1.178,0.665-1.608C0.2,6.041,0.771,5.806,1.375,5.806 M1.375,4.808c-0.871,0-1.691,0.341-2.306,0.957
			c-0.62,0.619-0.96,1.439-0.957,2.314c0,0.872,0.342,1.692,0.961,2.309l4.701,4.703c0.065,0.065,0.153,0.101,0.238,0.101
			s0.172-0.032,0.237-0.098L8.961,10.4c0.617-0.619,0.958-1.439,0.958-2.312c0.003-0.875-0.335-1.695-0.954-2.314
			C8.349,5.156,7.529,4.818,6.657,4.818c-0.875,0-1.696,0.341-2.314,0.959L4.021,6.1L3.692,5.771
			C3.074,5.152,2.25,4.808,1.375,4.808L1.375,4.808z"/>
	</g>
</g>
</svg>
