<?xml version="1.0" encoding="utf-8"?>
<!-- Generator: Adobe Illustrator 16.0.0, SVG Export Plug-In . SVG Version: 6.00 Build 0)  -->
<!DOCTYPE svg PUBLIC "-//W3C//DTD SVG 1.1//EN" "http://www.w3.org/Graphics/SVG/1.1/DTD/svg11.dtd">
<svg version="1.1" id="Layer_1" xmlns="http://www.w3.org/2000/svg" xmlns:xlink="http://www.w3.org/1999/xlink" x="0px" y="0px"
	 width="30px" height="30px" viewBox="81.182 -196.07 30 30" enable-background="new 81.182 -196.07 30 30" xml:space="preserve">
<g>
	<path fill="#F2D733" d="M106.879-171.369H85.482c-0.448,0-0.801,0.372-0.801,0.802c0,0.429,0.371,0.801,0.801,0.801h21.416
		c0.449,0,0.804-0.372,0.804-0.801C107.702-170.997,107.329-171.369,106.879-171.369z"/>
	<path fill="#F2D733" d="M85.461-173.833l3.795-0.019c0.215,0,0.411-0.08,0.567-0.235l13.104-13.104c0.312-0.312,0.312-0.82,0-1.154
		l-3.756-3.794c-0.312-0.312-0.82-0.312-1.152,0l-2.621,2.641l-10.482,10.463c-0.138,0.159-0.234,0.353-0.234,0.569l-0.021,3.813
		c0,0.217,0.077,0.43,0.233,0.585C85.051-173.91,85.248-173.833,85.461-173.833z M98.605-190.418l2.642,2.644l-1.485,1.485
		l-2.642-2.64L98.605-190.418z M86.305-178.113l9.662-9.662l2.639,2.64l-9.66,9.644l-2.66,0.019L86.305-178.113z"/>
</g>
</svg>
