<?xml version="1.0" encoding="utf-8"?>
<!-- Generator: Adobe Illustrator 16.0.0, SVG Export Plug-In . SVG Version: 6.00 Build 0)  -->
<!DOCTYPE svg PUBLIC "-//W3C//DTD SVG 1.1//EN" "http://www.w3.org/Graphics/SVG/1.1/DTD/svg11.dtd">
<svg version="1.1" id="Layer_1" xmlns="http://www.w3.org/2000/svg" xmlns:xlink="http://www.w3.org/1999/xlink" x="0px" y="0px"
	 width="30px" height="30px" viewBox="31.355 -196.07 30 30" enable-background="new 31.355 -196.07 30 30" xml:space="preserve">
<g>
	<path fill="#333333" d="M53.396-187.276c-0.389-0.391-1.022-0.391-1.413,0c-0.392,0.39-0.392,1.023,0,1.414
		c1.504,1.505,2.333,3.504,2.333,5.631s-0.829,4.127-2.333,5.631c-3.104,3.104-8.157,3.104-11.261,0
		c-3.104-3.105-3.104-8.157,0-11.262c0.391-0.391,0.391-1.024,0-1.414c-0.392-0.391-1.023-0.391-1.414,0
		c-3.884,3.884-3.884,10.205,0,14.09c1.941,1.942,4.492,2.913,7.045,2.913c2.551,0,5.102-0.972,7.043-2.913
		c1.882-1.882,2.918-4.383,2.918-7.045C56.314-182.893,55.279-185.395,53.396-187.276z"/>
	<path fill="#333333" d="M46.354-182.783c0.553,0,1-0.448,1-1v-7.083c0-0.552-0.448-1-1-1c-0.553,0-1,0.448-1,1v7.083
		C45.354-183.231,45.801-182.783,46.354-182.783z"/>
</g>
</svg>
