<?xml version="1.0" encoding="utf-8"?>
<!-- Generator: Adobe Illustrator 16.0.0, SVG Export Plug-In . SVG Version: 6.00 Build 0)  -->
<!DOCTYPE svg PUBLIC "-//W3C//DTD SVG 1.1//EN" "http://www.w3.org/Graphics/SVG/1.1/DTD/svg11.dtd">
<svg version="1.1" id="Layer_1" xmlns="http://www.w3.org/2000/svg" xmlns:xlink="http://www.w3.org/1999/xlink" x="0px" y="0px"
	 width="20px" height="20px" viewBox="72.146 0.001 20 20" enable-background="new 72.146 0.001 20 20" xml:space="preserve">
<g>
	<path fill="#333333" d="M82.145,4.857c-2.835,0-5.142,2.31-5.142,5.145c0,2.832,2.307,5.143,5.142,5.143s5.144-2.311,5.144-5.143
		C87.288,7.167,84.979,4.857,82.145,4.857z M82.145,14.049c-2.231,0-4.048-1.818-4.048-4.048c0-2.232,1.816-4.048,4.048-4.048
		s4.05,1.815,4.05,4.048C86.194,12.23,84.378,14.049,82.145,14.049z"/>
	<path fill="#333333" d="M84.824,9.84h-2.312V7.063c0-0.234-0.189-0.423-0.424-0.423c-0.233,0-0.424,0.188-0.424,0.423v3.203
		c0,0.231,0.19,0.421,0.424,0.421h2.734c0.235,0,0.424-0.189,0.424-0.421C85.249,10.032,85.06,9.84,84.824,9.84z"/>
</g>
</svg>
