<?xml version="1.0" encoding="utf-8"?>
<!-- Generator: Adobe Illustrator 16.0.0, SVG Export Plug-In . SVG Version: 6.00 Build 0)  -->
<!DOCTYPE svg PUBLIC "-//W3C//DTD SVG 1.1//EN" "http://www.w3.org/Graphics/SVG/1.1/DTD/svg11.dtd">
<svg version="1.1" id="Layer_1" xmlns="http://www.w3.org/2000/svg" xmlns:xlink="http://www.w3.org/1999/xlink" x="0px" y="0px"
	 width="30px" height="30px" viewBox="-121.497 -196.069 30 30" enable-background="new -121.497 -196.069 30 30"
	 xml:space="preserve">
<g>
	<g>
		<path fill="#333333" d="M-109.383-188.46c0.508,0,1.01,0.098,1.485,0.289c0.989,0.4,1.764,1.16,2.181,2.136
			c0.417,0.981,0.427,2.064,0.028,3.051c-0.61,1.517-2.065,2.498-3.705,2.498c-0.507,0-1.006-0.097-1.481-0.289
			c-2.038-0.822-3.028-3.148-2.208-5.185c0.398-0.988,1.158-1.761,2.139-2.178C-110.442-188.352-109.917-188.46-109.383-188.46
			 M-109.383-190.46c-0.795,0-1.59,0.16-2.344,0.48c-1.472,0.625-2.612,1.786-3.211,3.271c-1.231,3.061,0.252,6.553,3.315,7.788
			c0.73,0.294,1.486,0.434,2.229,0.434c2.371,0,4.621-1.418,5.56-3.75c0.598-1.479,0.583-3.106-0.043-4.58
			c-0.628-1.47-1.79-2.608-3.271-3.208C-107.87-190.315-108.625-190.46-109.383-190.46L-109.383-190.46z"/>
		<g>
			<path fill="#333333" d="M-98.624-171.679c-0.256,0-0.512-0.098-0.707-0.293l-7.079-7.081c-0.391-0.391-0.391-1.024,0-1.414
				c0.391-0.391,1.024-0.391,1.414,0l7.079,7.081c0.391,0.391,0.391,1.024,0,1.414C-98.112-171.776-98.368-171.679-98.624-171.679z"
				/>
		</g>
	</g>
</g>
</svg>
