<?xml version="1.0" encoding="utf-8"?>
<!-- Generator: Adobe Illustrator 16.0.0, SVG Export Plug-In . SVG Version: 6.00 Build 0)  -->
<!DOCTYPE svg PUBLIC "-//W3C//DTD SVG 1.1//EN" "http://www.w3.org/Graphics/SVG/1.1/DTD/svg11.dtd">
<svg version="1.1" id="Layer_1" xmlns="http://www.w3.org/2000/svg" xmlns:xlink="http://www.w3.org/1999/xlink" x="0px" y="0px"
	 width="40px" height="40px" viewBox="214.344 -110.037 40 40" enable-background="new 214.344 -110.037 40 40"
	 xml:space="preserve">
<g>
	<path fill="#039344" d="M250.873-90.037c0,9.13-7.399,16.528-16.53,16.528c-9.123,0-16.529-7.397-16.529-16.528
		c0-9.129,7.406-16.528,16.529-16.528C243.474-106.564,250.873-99.166,250.873-90.037z"/>
	<path fill="#FFFFFF" d="M242.66-91.037h-7.317v-7.319c0-0.552-0.449-1-1-1c-0.553,0-1,0.448-1,1v7.319h-7.316c-0.551,0-1,0.448-1,1
		c0,0.552,0.449,1,1,1h7.316v7.319c0,0.552,0.447,1,1,1c0.551,0,1-0.448,1-1v-7.319h7.317c0.552,0,1-0.448,1-1
		C243.66-90.589,243.212-91.037,242.66-91.037z"/>
</g>
</svg>
