<?xml version="1.0" encoding="utf-8"?>
<!-- Generator: Adobe Illustrator 16.0.0, SVG Export Plug-In . SVG Version: 6.00 Build 0)  -->
<!DOCTYPE svg PUBLIC "-//W3C//DTD SVG 1.1//EN" "http://www.w3.org/Graphics/SVG/1.1/DTD/svg11.dtd">
<svg version="1.1" id="Layer_1" xmlns="http://www.w3.org/2000/svg" xmlns:xlink="http://www.w3.org/1999/xlink" x="0px" y="0px"
	 width="30px" height="30px" viewBox="-56.53 -5.001 30 30" enable-background="new -56.53 -5.001 30 30" xml:space="preserve">
<g>
	<path fill="#FF4D2B" d="M-36.474,0.067c1.665,0,3.235,0.652,4.411,1.83c1.187,1.186,1.837,2.756,1.829,4.426
		c0,1.672-0.652,3.24-1.837,4.422l-8.996,8.993c-0.124,0.128-0.295,0.193-0.455,0.193c-0.163,0-0.329-0.062-0.455-0.188
		l-9.015-8.979c-1.182-1.187-1.835-2.759-1.835-4.429C-52.831,4.665-52.183,3.093-51,1.909c1.182-1.182,2.75-1.828,4.417-1.828
		c1.676,0,3.246,0.652,4.432,1.834l0.615,0.619l0.626-0.627C-39.725,0.726-38.15,0.067-36.474,0.067L-36.474,0.067z"/>
	<g>
		<g>
			<path fill="#FF9480" d="M-36.474,1.972c1.155,0,2.248,0.451,3.067,1.271c0.822,0.824,1.273,1.916,1.273,3.076l0,0v0.004
				c0,1.156-0.456,2.25-1.284,3.076l-8.109,8.107l-8.12-8.088c-0.822-0.822-1.274-1.918-1.274-3.08V6.335V6.331
				c-0.003-1.16,0.444-2.25,1.267-3.074c0.818-0.818,1.911-1.27,3.071-1.27c1.166,0,2.261,0.453,3.082,1.275l0.619,0.621
				l1.346,1.346l1.347-1.346l0.627-0.629C-38.735,2.429-37.637,1.972-36.474,1.972 M-36.474,1.972c1.155,0,2.248,0.451,3.067,1.271
				c0.822,0.824,1.273,1.916,1.273,3.076l0,0v0.004c0,1.156-0.456,2.25-1.284,3.076l-8.109,8.107l-8.12-8.088
				c-0.822-0.822-1.274-1.918-1.274-3.08V6.335V6.331c-0.003-1.16,0.444-2.25,1.267-3.074c0.818-0.818,1.911-1.27,3.071-1.27
				c1.166,0,2.261,0.453,3.082,1.275l0.619,0.621l1.346,1.346l1.347-1.346l0.627-0.629C-38.735,2.429-37.637,1.972-36.474,1.972"/>
		</g>
	</g>
</g>
</svg>
