<?xml version="1.0" encoding="utf-8"?>
<!-- Generator: Adobe Illustrator 16.0.0, SVG Export Plug-In . SVG Version: 6.00 Build 0)  -->
<!DOCTYPE svg PUBLIC "-//W3C//DTD SVG 1.1//EN" "http://www.w3.org/Graphics/SVG/1.1/DTD/svg11.dtd">
<svg version="1.1" id="Layer_1" xmlns="http://www.w3.org/2000/svg" xmlns:xlink="http://www.w3.org/1999/xlink" x="0px" y="0px"
	 width="20px" height="20px" viewBox="-73.863 -100.037 20 20" enable-background="new -73.863 -100.037 20 20"
	 xml:space="preserve">
<path fill="#333333" d="M-56.373-83.961l-6.077-6.077l6.076-6.075c0.391-0.391,0.391-1.023,0-1.414
	c-0.391-0.391-1.023-0.391-1.414,0l-6.075,6.076l-6.076-6.076c-0.391-0.391-1.023-0.391-1.414,0c-0.391,0.391-0.391,1.023,0,1.414
	l6.076,6.076l-6.077,6.076c-0.391,0.391-0.391,1.023,0,1.414c0.195,0.195,0.451,0.293,0.707,0.293c0.256,0,0.512-0.098,0.707-0.293
	l6.077-6.077l6.077,6.077c0.195,0.195,0.451,0.293,0.707,0.293c0.256,0,0.511-0.098,0.707-0.293
	C-55.982-82.938-55.982-83.57-56.373-83.961z"/>
</svg>
