<?xml version="1.0" encoding="utf-8"?>
<!-- Generator: Adobe Illustrator 16.0.0, SVG Export Plug-In . SVG Version: 6.00 Build 0)  -->
<!DOCTYPE svg PUBLIC "-//W3C//DTD SVG 1.1//EN" "http://www.w3.org/Graphics/SVG/1.1/DTD/svg11.dtd">
<svg version="1.1" id="Layer_1" xmlns="http://www.w3.org/2000/svg" xmlns:xlink="http://www.w3.org/1999/xlink" x="0px" y="0px"
	 width="30px" height="30px" viewBox="-172.537 -196.069 30 30" enable-background="new -172.537 -196.069 30 30"
	 xml:space="preserve">
<g>
	<path fill="#333333" d="M-151.79-176.627l-1.303-0.688c-0.425-0.259-0.913-0.396-1.408-0.396c-0.955,0-1.82,0.487-2.351,1.357
		l-0.319,0.481c-2.484-1.771-4.631-3.925-6.394-6.417l0.486-0.321c0.636-0.432,1.999-1.67,0.901-3.838l-0.635-1.221
		c-0.753-1.396-1.784-1.689-2.515-1.689c-0.379,0-0.769,0.076-1.16,0.229l-3.062,1.212c-0.789,0.266-1.417,0.892-1.692,1.719
		c-0.24,1-0.103,2.049,0.38,2.94c3.229,6.382,8.312,11.462,14.696,14.688c0.608,0.315,1.289,0.493,1.984,0.516h0.016
		c1.153,0,2.178-0.691,2.611-1.76l1.229-3.145C-150.053-173.679-149.648-175.474-151.79-176.627z M-151.992-173.612l-1.196,3.052
		c-0.115,0.277-0.33,0.493-0.538,0.586c-0.533,0.143-1.099,0.07-1.619-0.24c-6.044-3.053-10.857-7.861-13.921-13.913
		c-0.264-0.496-0.345-1.074-0.245-1.565c0.09-0.257,0.301-0.459,0.604-0.553l3.083-1.222c0.165-0.064,0.33-0.1,0.489-0.105
		c0.405,0.037,0.761,0.303,0.93,0.727l0.622,1.218c0.358,0.697,0.272,1.124-0.3,1.517l-1.261,0.833
		c-0.39,0.275-0.499,0.793-0.243,1.225c2.159,3.274,4.917,6.036,8.217,8.22c0.393,0.235,0.933,0.129,1.215-0.266l0.858-1.303
		c0.213-0.433,0.772-0.624,1.203-0.41c0.036,0.02,0.071,0.039,0.152,0.09l1.314,0.689
		C-151.917-174.649-151.745-174.262-151.992-173.612z"/>
	<path fill="#333333" d="M-147.05-189.14c-0.456-2.84-3.374-4.944-6.94-4.944c-3.851,0-6.984,2.559-6.984,5.717
		c0.041,1.617,0.825,3.129,2.112,4.097v2.948c0,0.499,0.406,0.904,0.904,0.904c0.229,0,0.448-0.086,0.615-0.24l2.269-2.075
		c0.034,0.004,0.067,0.008,0.1,0.012c0.957,1.71,3.022,2.801,5.354,2.801c0.282,0,0.565-0.017,0.845-0.049l1.812,1.66
		c0.168,0.153,0.386,0.237,0.612,0.237c0.253,0,0.495-0.107,0.659-0.287c0.158-0.167,0.246-0.387,0.246-0.62v-2.34
		c1.059-0.827,1.701-2.096,1.729-3.457C-143.717-186.648-145.015-188.333-147.05-189.14z M-154.06-184.481
		c-0.386-0.001-0.771-0.037-1.143-0.107l-0.166-0.015c-0.227,0-0.443,0.084-0.607,0.235l-1.077,0.985v-1.355
		c0-0.3-0.148-0.581-0.417-0.763c-1.015-0.62-1.648-1.7-1.694-2.869c0-2.145,2.325-3.89,5.184-3.89s5.184,1.745,5.184,3.886
		c-0.001,0.218-0.028,0.435-0.073,0.622c-0.22,0.77-0.658,1.452-1.249,1.96c-1.078,0.846-2.427,1.312-3.798,1.312L-154.06-184.481z
		 M-146.866-182.548c-0.249,0.17-0.396,0.449-0.396,0.748v0.752l-0.607-0.556c-0.167-0.155-0.385-0.241-0.615-0.241h-0.121
		l-0.044,0.008c-0.325,0.059-0.651,0.088-1.01,0.088l-0.158,0.002c-1.035,0-2.041-0.37-2.83-1.019
		c1.368-0.233,2.675-0.815,3.769-1.692c0.834-0.716,1.427-1.646,1.724-2.701c1.004,0.553,1.627,1.441,1.627,2.362
		C-145.563-183.876-146.055-183.041-146.866-182.548z"/>
</g>
</svg>
