<?xml version="1.0" encoding="utf-8"?>
<!-- Generator: Adobe Illustrator 16.0.0, SVG Export Plug-In . SVG Version: 6.00 Build 0)  -->
<!DOCTYPE svg PUBLIC "-//W3C//DTD SVG 1.1//EN" "http://www.w3.org/Graphics/SVG/1.1/DTD/svg11.dtd">
<svg version="1.1" id="Layer_1" xmlns="http://www.w3.org/2000/svg" xmlns:xlink="http://www.w3.org/1999/xlink" x="0px" y="0px"
	 width="50px" height="40px" viewBox="298.025 -201.069 50 40" enable-background="new 298.025 -201.069 50 40"
	 xml:space="preserve">
<path fill="#333333" d="M340.08-189.203h-9.038c0.64-0.838,1.035-1.871,1.035-3.004c0-2.743-2.232-4.973-4.977-4.973
	c-1.631,0-3.067,0.799-3.976,2.013c-0.908-1.215-2.346-2.013-3.978-2.013c-2.743,0-4.976,2.231-4.976,4.973
	c0,1.133,0.395,2.167,1.034,3.004h-9.234c-0.552,0-1,0.448-1,1v5.672c0,0.552,0.448,1,1,1h0.862v15.572c0,0.552,0.448,1,1,1h11.813
	h6.756h11.814c0.553,0,1-0.448,1-1v-15.572h0.862c0.552,0,1-0.447,1-1v-5.672C341.08-188.755,340.632-189.203,340.08-189.203z
	 M339.08-183.531h-0.862h-10.814v-3.672h11.677V-183.531z M325.403-187.203v3.672h-4.756v-3.672H325.403z M327.101-195.179
	c1.641,0,2.976,1.334,2.976,2.973c0,1.626-1.31,2.953-2.929,2.978c-0.061-0.005-0.115-0.005-0.17,0h-2.852v-2.867
	c0.002-0.023,0.003-0.047,0.003-0.071c0-0.026-0.002-0.057-0.004-0.087C324.149-193.87,325.476-195.179,327.101-195.179z
	 M319.146-195.18c1.615,0,2.932,1.287,2.978,2.887c-0.006,0.043-0.009,0.086-0.009,0.127c0,0.047,0.004,0.094,0.01,0.139v2.799
	h-2.854c-0.053-0.005-0.108-0.006-0.172-0.001c-1.619-0.025-2.929-1.352-2.929-2.978C316.17-193.847,317.505-195.18,319.146-195.18z
	 M306.972-187.203h11.676v3.672h-10.813h-0.862V-187.203z M308.834-181.531h9.813v14.572h-9.813V-181.531z M320.647-166.959v-14.572
	h4.756v14.572H320.647z M337.218-166.959h-9.814v-14.572h9.814V-166.959z"/>
</svg>
