<?xml version="1.0" encoding="utf-8"?>
<!-- Generator: Adobe Illustrator 16.0.0, SVG Export Plug-In . SVG Version: 6.00 Build 0)  -->
<!DOCTYPE svg PUBLIC "-//W3C//DTD SVG 1.1//EN" "http://www.w3.org/Graphics/SVG/1.1/DTD/svg11.dtd">
<svg version="1.1" id="Layer_1" xmlns="http://www.w3.org/2000/svg" xmlns:xlink="http://www.w3.org/1999/xlink" x="0px" y="0px"
	 width="30px" height="30px" viewBox="-107.47 -5 30 30" enable-background="new -107.47 -5 30 30" xml:space="preserve">
<g>
	<path fill="#333333" d="M-87.415,1.972c1.156,0,2.248,0.451,3.068,1.271c0.822,0.824,1.273,1.916,1.273,3.076l0,0v0.004
		c0,1.156-0.457,2.25-1.283,3.076l-8.111,8.107l-8.119-8.088c-0.822-0.822-1.275-1.918-1.275-3.08V6.335V6.331
		c-0.002-1.16,0.445-2.25,1.268-3.074c0.818-0.818,1.91-1.27,3.072-1.27c1.164,0,2.26,0.453,3.08,1.275l0.619,0.621l1.346,1.346
		l1.348-1.346l0.627-0.629C-89.677,2.429-88.579,1.972-87.415,1.972 M-87.415,0.067c-1.676,0-3.25,0.658-4.436,1.842l-0.627,0.627
		l-0.615-0.619c-1.186-1.182-2.756-1.834-4.43-1.834c-1.668,0-3.236,0.646-4.418,1.828c-1.184,1.184-1.83,2.756-1.826,4.428
		c0,1.67,0.652,3.242,1.834,4.429l9.016,8.979c0.125,0.125,0.293,0.188,0.455,0.188c0.16,0,0.33-0.065,0.455-0.192l8.996-8.994
		c1.184-1.182,1.838-2.75,1.838-4.422c0.006-1.67-0.643-3.24-1.83-4.426C-84.179,0.72-85.749,0.067-87.415,0.067L-87.415,0.067z"/>
</g>
</svg>
