<?xml version="1.0" encoding="utf-8"?>
<!-- Generator: Adobe Illustrator 16.0.0, SVG Export Plug-In . SVG Version: 6.00 Build 0)  -->
<!DOCTYPE svg PUBLIC "-//W3C//DTD SVG 1.1//EN" "http://www.w3.org/Graphics/SVG/1.1/DTD/svg11.dtd">
<svg version="1.1" id="Layer_1" xmlns="http://www.w3.org/2000/svg" xmlns:xlink="http://www.w3.org/1999/xlink" x="0px" y="0px"
	 width="50px" height="40px" viewBox="166.574 -201.069 50 40" enable-background="new 166.574 -201.069 50 40"
	 xml:space="preserve">
<g>
	<path fill="#333333" d="M213.18-180.566c-0.094-0.69-0.449-1.303-1.004-1.724l-19.996-15.231c-0.359-0.273-0.854-0.273-1.213,0
		l-19.994,15.23c-1.144,0.868-1.367,2.507-0.494,3.656c0.498,0.651,1.252,1.025,2.072,1.025c0.576,0,1.124-0.186,1.58-0.536
		l2.155-1.641v14.375c0,0.552,0.448,1,1,1h28.573c0.554,0,1-0.447,1-1v-14.375l2.148,1.636c1.088,0.845,2.814,0.621,3.661-0.485
		C213.091-179.191,213.271-179.876,213.18-180.566z M194.255-166.413h-5.364v-9.867h5.364V-166.413z M204.859-166.413h-8.604
		v-10.867c0-0.552-0.448-1-1-1h-7.364c-0.553,0-1,0.448-1,1v10.867h-8.604v-14.898l13.287-10.117l13.286,10.117V-166.413z
		 M211.079-179.851c-0.116,0.152-0.293,0.239-0.485,0.239c-0.094,0-0.23-0.021-0.367-0.126l-3.65-2.779
		c-0.027-0.028-0.062-0.046-0.093-0.071L192.18-193.48c-0.359-0.272-0.854-0.272-1.213,0l-14.302,10.891
		c-0.032,0.026-0.068,0.044-0.096,0.073l-3.652,2.781c-0.134,0.104-0.272,0.125-0.366,0.125c-0.191,0-0.367-0.087-0.48-0.236
		c-0.203-0.269-0.153-0.651,0.113-0.854l19.389-14.77l19.392,14.77c0.129,0.098,0.211,0.24,0.233,0.4
		C211.219-180.14,211.176-179.979,211.079-179.851z"/>
	<path fill="#333333" d="M187.881-184.014c0,2.037,1.656,3.695,3.691,3.695c2.039,0,3.697-1.658,3.697-3.695
		s-1.658-3.694-3.697-3.694C189.537-187.708,187.881-186.051,187.881-184.014z M193.27-184.014c0,0.935-0.762,1.695-1.697,1.695
		c-0.932,0-1.691-0.76-1.691-1.695c0-0.934,0.76-1.694,1.691-1.694C192.508-185.708,193.27-184.947,193.27-184.014z"/>
</g>
</svg>
