<?xml version="1.0" encoding="utf-8"?>
<!-- Generator: Adobe Illustrator 16.0.0, SVG Export Plug-In . SVG Version: 6.00 Build 0)  -->
<!DOCTYPE svg PUBLIC "-//W3C//DTD SVG 1.1//EN" "http://www.w3.org/Graphics/SVG/1.1/DTD/svg11.dtd">
<svg version="1.1" xmlns="http://www.w3.org/2000/svg" xmlns:xlink="http://www.w3.org/1999/xlink" x="0px" y="0px" width="20px"
	 height="20px" viewBox="0 0 20 20" enable-background="new 0 0 20 20" xml:space="preserve">
<g id="Logo">
</g>
<g id="fondo">
</g>
<g id="Contenido">
</g>
<g id="Header">
</g>
<g id="menú">
</g>
<g id="Capa_1">
</g>
<g id="Publicidad">
</g>
<g id="Alertas">
	<g>
		<path fill-rule="evenodd" clip-rule="evenodd" fill="#333333" d="M15.164,11.879c-0.181-0.363-0.282-0.75-0.326-1.152
			c-0.051-0.444-0.039-0.885,0.055-1.323c0.129-0.6,0.403-1.125,0.816-1.578c0.28-0.307,0.605-0.562,0.958-0.779
			c0.014-0.01,0.024-0.018,0.043-0.031c-0.052-0.064-0.1-0.133-0.151-0.197c-0.527-0.66-1.209-1.084-2.018-1.312
			c-0.426-0.117-0.857-0.188-1.299-0.191c-0.377-0.002-0.748,0.06-1.107,0.169c-0.366,0.11-0.727,0.244-1.089,0.362
			c-0.272,0.087-0.547,0.169-0.819,0.252C10.104,6.133,9.984,6.1,9.866,6.07C9.531,5.988,9.207,5.869,8.885,5.75
			c-0.37-0.137-0.746-0.26-1.136-0.338C7.453,5.354,7.154,5.348,6.854,5.379C6.479,5.416,6.116,5.498,5.767,5.635
			C5.09,5.899,4.509,6.305,4.039,6.859C3.462,7.541,3.107,8.33,2.943,9.205C2.84,9.766,2.814,10.33,2.845,10.899
			c0.065,1.218,0.382,2.376,0.862,3.492c0.33,0.77,0.756,1.479,1.261,2.141c0.255,0.333,0.513,0.666,0.814,0.958
			c0.252,0.244,0.521,0.469,0.843,0.623c0.199,0.096,0.405,0.16,0.625,0.18c0.01,0,0.018,0.006,0.026,0.008c0.08,0,0.161,0,0.24,0
			c0.094-0.014,0.187-0.023,0.278-0.041c0.34-0.063,0.662-0.174,0.981-0.303c0.332-0.133,0.672-0.238,1.024-0.296
			c0.516-0.088,1.023-0.051,1.521,0.103c0.267,0.081,0.525,0.186,0.788,0.282c0.3,0.107,0.606,0.191,0.925,0.224
			c0.396,0.039,0.769-0.041,1.121-0.219c0.355-0.182,0.652-0.435,0.911-0.73c0.732-0.832,1.354-1.738,1.79-2.762
			c0.106-0.25,0.195-0.504,0.293-0.756c0.006-0.014,0.011-0.025,0.018-0.037c0-0.003,0-0.005,0-0.01
			C16.28,13.367,15.601,12.75,15.164,11.879z"/>
		<path fill-rule="evenodd" clip-rule="evenodd" fill="#333333" d="M9.978,5.729c0.145-0.001,0.29,0.004,0.433-0.01
			c0.402-0.041,0.773-0.18,1.119-0.387c0.477-0.287,0.869-0.664,1.203-1.104c0.522-0.688,0.804-1.455,0.77-2.326
			c-0.002-0.064-0.008-0.129-0.014-0.203c-0.12,0.016-0.233,0.028-0.345,0.046c-0.382,0.067-0.737,0.206-1.083,0.375
			c-1.287,0.629-2.03,1.938-2.125,3c-0.019,0.2-0.02,0.401,0.007,0.604C9.955,5.727,9.967,5.729,9.978,5.729z"/>
	</g>
</g>
</svg>
